<svg width="111" height="28" viewBox="0 0 111 28" fill="none" xmlns="http://www.w3.org/2000/svg">
<g clip-path="url(#clip0_16_7)">
<path d="M16.821 0.818359V17.1564C16.821 19.8795 14.8906 21.8354 12.0653 21.8354C9.2273 21.8354 7.30969 19.8795 7.30969 17.1564V0.818359H0.981567V17.7062C0.981567 23.5613 5.40486 27.3326 12.0653 27.3326C18.6747 27.3326 23.1364 23.5613 23.1364 17.7062V0.818359H16.821ZM32.634 0.818359H26.3826V27.0002H32.634V0.818359ZM46.9769 7.36382H43.4357V2.65927H37.1843V7.36382H34.5891V11.9661H37.1843V21.5158C37.1459 25.4917 39.7283 27.486 44.1388 27.2814C45.6474 27.2047 46.734 26.8979 47.3349 26.719L46.3888 22.2062C46.1204 22.2701 45.494 22.3979 45.0209 22.3979C44.011 22.3979 43.4357 21.9888 43.4357 20.8255V11.9661H46.9769V7.36382ZM49.4465 27.0002H55.698V16.3383C55.698 13.9988 57.3599 12.4263 59.5971 12.4263C60.3386 12.4263 61.4508 12.5542 62.0516 12.7587V7.32546C61.5275 7.18484 60.8755 7.09535 60.3002 7.09535C58.1525 7.09535 56.4394 8.34819 55.7235 10.9434H55.519V7.36382H49.4465V27.0002ZM68.6761 27.3326C71.4119 27.3326 73.3039 26.2715 74.3778 24.2644H74.5312V27.0002H80.4119V13.6536C80.4119 9.49876 76.7173 7.10813 71.7187 7.10813C66.4389 7.10813 63.4474 9.76723 62.9488 13.3468L68.7145 13.5513C68.9829 12.2985 70.0184 11.5314 71.6676 11.5314C73.2017 11.5314 74.1733 12.2729 74.1733 13.5897V13.6536C74.1733 14.8553 72.8693 15.111 69.5199 15.405C65.544 15.7374 62.2201 17.2076 62.2201 21.5542C62.2201 25.4405 64.9176 27.3326 68.6761 27.3326ZM70.6065 23.2417C69.1619 23.2417 68.1392 22.5513 68.1392 21.2474C68.1392 19.9817 69.1363 19.2147 70.9133 18.9462C72.0767 18.78 73.5085 18.5243 74.2116 18.1536V20.0201C74.2116 21.9377 72.6008 23.2417 70.6065 23.2417ZM100.658 13.3596C100.325 9.47319 97.1422 7.10813 91.824 7.10813C86.5058 7.10813 83.118 9.42206 83.1436 13.3596C83.118 16.3766 85.0484 18.3198 88.9732 19.0485L92.3993 19.7005C94.0229 20.0201 94.7643 20.5314 94.7899 21.4008C94.7643 22.3851 93.6649 23.0371 92.0669 23.0371C90.2899 23.0371 89.0882 22.2701 88.8197 20.8383L82.645 20.9917C83.0925 24.878 86.4291 27.3709 92.0413 27.3709C97.2956 27.3709 101.118 24.7502 101.144 20.7104C101.118 17.8468 99.226 16.1465 95.3141 15.3922L91.53 14.6763C89.868 14.344 89.3311 13.7559 89.3439 13.0016C89.3311 12.0045 90.4945 11.3908 91.9391 11.3908C93.5882 11.3908 94.7388 12.2729 94.9178 13.513L100.658 13.3596ZM107.017 27.3709C108.768 27.3709 110.315 25.888 110.341 24.0471C110.315 22.2317 108.768 20.7616 107.017 20.7616C105.176 20.7616 103.668 22.2317 103.693 24.0471C103.668 25.888 105.176 27.3709 107.017 27.3709Z" fill="#1A1A1A"/>
</g>
<defs>
<clipPath id="clip0_16_7">
<rect width="111" height="28" fill="white"/>
</clipPath>
</defs>
</svg>
