<svg width="124" height="59" viewBox="0 0 124 59" fill="none" xmlns="http://www.w3.org/2000/svg">
<path d="M1.588 50.96C1.588 50.3627 1.69067 49.77 1.896 49.182C2.11067 48.5847 2.41867 48.0527 2.82 47.586C3.22133 47.1193 3.716 46.7413 4.304 46.452C4.892 46.1533 5.55933 46.004 6.306 46.004C7.19267 46.004 7.94867 46.2047 8.574 46.606C9.20867 47.0073 9.67533 47.53 9.974 48.174L9.204 48.65C9.04533 48.3233 8.84933 48.048 8.616 47.824C8.392 47.6 8.14933 47.418 7.888 47.278C7.62667 47.138 7.356 47.04 7.076 46.984C6.796 46.9187 6.52067 46.886 6.25 46.886C5.65267 46.886 5.12533 47.0073 4.668 47.25C4.21067 47.4927 3.82333 47.81 3.506 48.202C3.198 48.594 2.96467 49.0373 2.806 49.532C2.64733 50.0173 2.568 50.512 2.568 51.016C2.568 51.5667 2.66133 52.094 2.848 52.598C3.044 53.102 3.30533 53.55 3.632 53.942C3.968 54.3247 4.36 54.6327 4.808 54.866C5.26533 55.09 5.76 55.202 6.292 55.202C6.572 55.202 6.85667 55.1693 7.146 55.104C7.44467 55.0293 7.72933 54.9173 8 54.768C8.28 54.6093 8.53667 54.418 8.77 54.194C9.00333 53.9607 9.19933 53.6807 9.358 53.354L10.17 53.774C10.0113 54.1473 9.78733 54.4787 9.498 54.768C9.20867 55.048 8.88667 55.286 8.532 55.482C8.17733 55.678 7.79933 55.8273 7.398 55.93C7.006 56.0327 6.61867 56.084 6.236 56.084C5.55467 56.084 4.92933 55.9347 4.36 55.636C3.79067 55.3373 3.30067 54.95 2.89 54.474C2.47933 53.9887 2.15733 53.4427 1.924 52.836C1.7 52.22 1.588 51.5947 1.588 50.96ZM13.7617 56.14C13.4163 56.14 13.0943 56.084 12.7957 55.972C12.5063 55.8507 12.2497 55.6873 12.0257 55.482C11.811 55.2767 11.643 55.0387 11.5217 54.768C11.4003 54.488 11.3397 54.1893 11.3397 53.872C11.3397 53.5547 11.4143 53.2607 11.5637 52.99C11.713 52.7193 11.923 52.486 12.1937 52.29C12.4643 52.094 12.7863 51.9447 13.1597 51.842C13.533 51.73 13.9437 51.674 14.3917 51.674C14.765 51.674 15.143 51.7067 15.5257 51.772C15.9083 51.8373 16.249 51.9307 16.5477 52.052V51.394C16.5477 50.75 16.3657 50.2413 16.0017 49.868C15.6377 49.4853 15.1337 49.294 14.4897 49.294C14.1163 49.294 13.7337 49.3687 13.3417 49.518C12.9497 49.6673 12.553 49.882 12.1517 50.162L11.8157 49.532C12.7583 48.8973 13.673 48.58 14.5597 48.58C15.4743 48.58 16.193 48.8367 16.7157 49.35C17.2383 49.8633 17.4997 50.5727 17.4997 51.478V54.768C17.4997 55.0293 17.6163 55.16 17.8497 55.16V56C17.691 56.028 17.5697 56.042 17.4857 56.042C17.243 56.042 17.0517 55.9813 16.9117 55.86C16.781 55.7387 16.711 55.5707 16.7017 55.356L16.6737 54.782C16.3377 55.2207 15.913 55.5567 15.3997 55.79C14.8957 56.0233 14.3497 56.14 13.7617 56.14ZM13.9857 55.412C14.4803 55.412 14.933 55.3187 15.3437 55.132C15.7637 54.9453 16.081 54.698 16.2957 54.39C16.3797 54.306 16.4403 54.2173 16.4777 54.124C16.5243 54.0213 16.5477 53.928 16.5477 53.844V52.654C16.2303 52.5327 15.899 52.4393 15.5537 52.374C15.2177 52.3087 14.8723 52.276 14.5177 52.276C13.8457 52.276 13.2997 52.416 12.8797 52.696C12.4597 52.976 12.2497 53.3447 12.2497 53.802C12.2497 54.026 12.2917 54.236 12.3757 54.432C12.469 54.628 12.5903 54.8007 12.7397 54.95C12.8983 55.09 13.085 55.202 13.2997 55.286C13.5143 55.37 13.743 55.412 13.9857 55.412ZM22.2586 56.14C21.6892 56.14 21.1339 56.0467 20.5926 55.86C20.0512 55.6733 19.5846 55.4027 19.1926 55.048L19.6266 54.404C20.0372 54.74 20.4526 54.992 20.8726 55.16C21.3019 55.328 21.7592 55.412 22.2446 55.412C22.8326 55.412 23.2992 55.2953 23.6446 55.062C23.9992 54.8193 24.1766 54.4787 24.1766 54.04C24.1766 53.8347 24.1299 53.6667 24.0366 53.536C23.9432 53.396 23.8032 53.2747 23.6166 53.172C23.4392 53.0693 23.2106 52.9807 22.9306 52.906C22.6599 52.822 22.3426 52.738 21.9786 52.654C21.5586 52.5513 21.1946 52.4487 20.8866 52.346C20.5786 52.2433 20.3219 52.1267 20.1166 51.996C19.9206 51.8653 19.7712 51.7067 19.6686 51.52C19.5752 51.324 19.5286 51.0813 19.5286 50.792C19.5286 50.428 19.5986 50.106 19.7386 49.826C19.8879 49.546 20.0839 49.3173 20.3266 49.14C20.5786 48.9533 20.8679 48.8133 21.1946 48.72C21.5306 48.6267 21.8852 48.58 22.2586 48.58C22.8186 48.58 23.3272 48.6733 23.7846 48.86C24.2419 49.0373 24.6106 49.2753 24.8906 49.574L24.4286 50.134C24.1579 49.854 23.8266 49.644 23.4346 49.504C23.0519 49.364 22.6506 49.294 22.2306 49.294C21.9786 49.294 21.7452 49.322 21.5306 49.378C21.3159 49.4247 21.1246 49.504 20.9566 49.616C20.7979 49.728 20.6719 49.8727 20.5786 50.05C20.4852 50.218 20.4386 50.4187 20.4386 50.652C20.4386 50.848 20.4712 51.0067 20.5366 51.128C20.6019 51.2493 20.7092 51.3567 20.8586 51.45C21.0079 51.534 21.1946 51.6133 21.4186 51.688C21.6519 51.7533 21.9319 51.8233 22.2586 51.898C22.7252 52.01 23.1359 52.122 23.4906 52.234C23.8452 52.346 24.1392 52.4767 24.3726 52.626C24.6152 52.7753 24.7972 52.9573 24.9186 53.172C25.0399 53.3867 25.1006 53.648 25.1006 53.956C25.1006 54.628 24.8439 55.16 24.3306 55.552C23.8172 55.944 23.1266 56.14 22.2586 56.14ZM29.2208 56.14C28.4275 56.14 27.8348 55.8787 27.4428 55.356C27.0602 54.824 26.8688 54.0353 26.8688 52.99V48.706H27.8208V52.822C27.8208 54.474 28.3855 55.3 29.5148 55.3C29.7948 55.3 30.0702 55.2533 30.3408 55.16C30.6115 55.0667 30.8588 54.9313 31.0828 54.754C31.3162 54.5767 31.5215 54.3667 31.6988 54.124C31.8855 53.8813 32.0348 53.606 32.1468 53.298V48.706H33.0988V54.768C33.0988 55.0293 33.2108 55.16 33.4348 55.16V56C33.3228 56.0187 33.2295 56.028 33.1548 56.028C33.0895 56.028 33.0428 56.028 33.0148 56.028C32.7908 56.0187 32.6088 55.9393 32.4688 55.79C32.3288 55.6407 32.2588 55.44 32.2588 55.188V54.348C31.9415 54.9173 31.5075 55.3607 30.9568 55.678C30.4155 55.986 29.8368 56.14 29.2208 56.14ZM37.3653 56.14C37.02 56.14 36.698 56.084 36.3993 55.972C36.11 55.8507 35.8533 55.6873 35.6293 55.482C35.4147 55.2767 35.2467 55.0387 35.1253 54.768C35.004 54.488 34.9433 54.1893 34.9433 53.872C34.9433 53.5547 35.018 53.2607 35.1673 52.99C35.3167 52.7193 35.5267 52.486 35.7973 52.29C36.068 52.094 36.39 51.9447 36.7633 51.842C37.1367 51.73 37.5473 51.674 37.9953 51.674C38.3687 51.674 38.7467 51.7067 39.1293 51.772C39.512 51.8373 39.8527 51.9307 40.1513 52.052V51.394C40.1513 50.75 39.9693 50.2413 39.6053 49.868C39.2413 49.4853 38.7373 49.294 38.0933 49.294C37.72 49.294 37.3373 49.3687 36.9453 49.518C36.5533 49.6673 36.1567 49.882 35.7553 50.162L35.4193 49.532C36.362 48.8973 37.2767 48.58 38.1633 48.58C39.078 48.58 39.7967 48.8367 40.3193 49.35C40.842 49.8633 41.1033 50.5727 41.1033 51.478V54.768C41.1033 55.0293 41.22 55.16 41.4533 55.16V56C41.2947 56.028 41.1733 56.042 41.0893 56.042C40.8467 56.042 40.6553 55.9813 40.5153 55.86C40.3847 55.7387 40.3147 55.5707 40.3053 55.356L40.2773 54.782C39.9413 55.2207 39.5167 55.5567 39.0033 55.79C38.4993 56.0233 37.9533 56.14 37.3653 56.14ZM37.5893 55.412C38.084 55.412 38.5367 55.3187 38.9473 55.132C39.3673 54.9453 39.6847 54.698 39.8993 54.39C39.9833 54.306 40.044 54.2173 40.0813 54.124C40.128 54.0213 40.1513 53.928 40.1513 53.844V52.654C39.834 52.5327 39.5027 52.4393 39.1573 52.374C38.8213 52.3087 38.476 52.276 38.1213 52.276C37.4493 52.276 36.9033 52.416 36.4833 52.696C36.0633 52.976 35.8533 53.3447 35.8533 53.802C35.8533 54.026 35.8953 54.236 35.9793 54.432C36.0727 54.628 36.194 54.8007 36.3433 54.95C36.502 55.09 36.6887 55.202 36.9033 55.286C37.118 55.37 37.3467 55.412 37.5893 55.412ZM43.4822 45.78H44.4342V54.348C44.4342 54.6187 44.5089 54.8333 44.6582 54.992C44.8076 55.1413 45.0176 55.216 45.2882 55.216C45.3909 55.216 45.5122 55.202 45.6522 55.174C45.7922 55.146 45.9229 55.1087 46.0442 55.062L46.2122 55.832C46.0349 55.9067 45.8156 55.9673 45.5542 56.014C45.3022 56.0607 45.0829 56.084 44.8962 56.084C44.4576 56.084 44.1122 55.9627 43.8602 55.72C43.6082 55.468 43.4822 55.118 43.4822 54.67V45.78ZM54.401 46.13H55.325L56.725 49.658L58.139 46.13H59.077L57.341 50.372L59.245 54.866L62.843 46.06H63.907L59.693 56H58.825L56.739 51.086L54.639 56H53.785L49.585 46.06H50.635L54.247 54.866L56.137 50.372L54.401 46.13ZM67.6373 56.14C67.1053 56.14 66.6153 56.042 66.1673 55.846C65.7286 55.6407 65.3459 55.3653 65.0193 55.02C64.6926 54.6653 64.4359 54.2593 64.2493 53.802C64.0719 53.3447 63.9833 52.8547 63.9833 52.332C63.9833 51.8187 64.0719 51.338 64.2493 50.89C64.4359 50.4327 64.6879 50.036 65.0053 49.7C65.3319 49.3547 65.7193 49.084 66.1673 48.888C66.6153 48.6827 67.1006 48.58 67.6233 48.58C68.1553 48.58 68.6406 48.6827 69.0793 48.888C69.5273 49.084 69.9099 49.3547 70.2273 49.7C70.5446 50.0453 70.7919 50.442 70.9693 50.89C71.1466 51.338 71.2353 51.814 71.2353 52.318C71.2353 52.3927 71.2353 52.4673 71.2353 52.542C71.2353 52.6167 71.2306 52.668 71.2213 52.696H64.9773C65.0053 53.088 65.0939 53.452 65.2433 53.788C65.4019 54.1147 65.6026 54.3993 65.8453 54.642C66.0879 54.8847 66.3633 55.076 66.6713 55.216C66.9886 55.3467 67.3246 55.412 67.6793 55.412C67.9126 55.412 68.1459 55.3793 68.3793 55.314C68.6126 55.2487 68.8273 55.16 69.0233 55.048C69.2193 54.936 69.3966 54.8007 69.5553 54.642C69.7139 54.474 69.8353 54.292 69.9193 54.096L70.7453 54.32C70.6333 54.5907 70.4746 54.838 70.2693 55.062C70.0639 55.2767 69.8259 55.468 69.5553 55.636C69.2846 55.7947 68.9859 55.916 68.6593 56C68.3326 56.0933 67.9919 56.14 67.6373 56.14ZM70.3253 51.968C70.2973 51.576 70.2039 51.2213 70.0453 50.904C69.8959 50.5773 69.6999 50.2973 69.4573 50.064C69.2239 49.8307 68.9486 49.6487 68.6313 49.518C68.3233 49.3873 67.9919 49.322 67.6373 49.322C67.2826 49.322 66.9466 49.3873 66.6293 49.518C66.3119 49.6487 66.0319 49.8307 65.7893 50.064C65.5559 50.2973 65.3646 50.5773 65.2153 50.904C65.0753 51.2307 64.9913 51.5853 64.9633 51.968H70.3253ZM74.8181 56.14C74.4727 56.14 74.1507 56.084 73.8521 55.972C73.5627 55.8507 73.3061 55.6873 73.0821 55.482C72.8674 55.2767 72.6994 55.0387 72.5781 54.768C72.4567 54.488 72.3961 54.1893 72.3961 53.872C72.3961 53.5547 72.4707 53.2607 72.6201 52.99C72.7694 52.7193 72.9794 52.486 73.2501 52.29C73.5207 52.094 73.8427 51.9447 74.2161 51.842C74.5894 51.73 75.0001 51.674 75.4481 51.674C75.8214 51.674 76.1994 51.7067 76.5821 51.772C76.9647 51.8373 77.3054 51.9307 77.6041 52.052V51.394C77.6041 50.75 77.4221 50.2413 77.0581 49.868C76.6941 49.4853 76.1901 49.294 75.5461 49.294C75.1727 49.294 74.7901 49.3687 74.3981 49.518C74.0061 49.6673 73.6094 49.882 73.2081 50.162L72.8721 49.532C73.8147 48.8973 74.7294 48.58 75.6161 48.58C76.5307 48.58 77.2494 48.8367 77.7721 49.35C78.2947 49.8633 78.5561 50.5727 78.5561 51.478V54.768C78.5561 55.0293 78.6727 55.16 78.9061 55.16V56C78.7474 56.028 78.6261 56.042 78.5421 56.042C78.2994 56.042 78.1081 55.9813 77.9681 55.86C77.8374 55.7387 77.7674 55.5707 77.7581 55.356L77.7301 54.782C77.3941 55.2207 76.9694 55.5567 76.4561 55.79C75.9521 56.0233 75.4061 56.14 74.8181 56.14ZM75.0421 55.412C75.5367 55.412 75.9894 55.3187 76.4001 55.132C76.8201 54.9453 77.1374 54.698 77.3521 54.39C77.4361 54.306 77.4967 54.2173 77.5341 54.124C77.5807 54.0213 77.6041 53.928 77.6041 53.844V52.654C77.2867 52.5327 76.9554 52.4393 76.6101 52.374C76.2741 52.3087 75.9287 52.276 75.5741 52.276C74.9021 52.276 74.3561 52.416 73.9361 52.696C73.5161 52.976 73.3061 53.3447 73.3061 53.802C73.3061 54.026 73.3481 54.236 73.4321 54.432C73.5254 54.628 73.6467 54.8007 73.7961 54.95C73.9547 55.09 74.1414 55.202 74.3561 55.286C74.5707 55.37 74.7994 55.412 75.0421 55.412ZM84.533 49.546C83.889 49.5647 83.329 49.742 82.853 50.078C82.377 50.414 82.041 50.876 81.845 51.464V56H80.893V48.706H81.789V50.456C82.0596 49.896 82.4236 49.4573 82.881 49.14C83.3383 48.8227 83.8283 48.664 84.351 48.664C84.4256 48.664 84.4863 48.6687 84.533 48.678V49.546ZM95.5937 47.922C95.3137 47.6047 94.9404 47.348 94.4737 47.152C94.0071 46.956 93.4751 46.858 92.8777 46.858C92.0004 46.858 91.3611 47.026 90.9597 47.362C90.5584 47.6887 90.3577 48.1367 90.3577 48.706C90.3577 49.0047 90.4091 49.252 90.5117 49.448C90.6237 49.6347 90.7917 49.798 91.0157 49.938C91.2397 50.078 91.5244 50.1993 91.8697 50.302C92.2244 50.4047 92.6397 50.5073 93.1157 50.61C93.6477 50.722 94.1237 50.848 94.5437 50.988C94.9731 51.128 95.3371 51.3053 95.6357 51.52C95.9344 51.7253 96.1631 51.9773 96.3217 52.276C96.4804 52.5747 96.5597 52.948 96.5597 53.396C96.5597 53.8533 96.4711 54.25 96.2937 54.586C96.1164 54.922 95.8691 55.202 95.5517 55.426C95.2344 55.65 94.8564 55.818 94.4177 55.93C93.9791 56.0327 93.4984 56.084 92.9757 56.084C91.4357 56.084 90.1057 55.6033 88.9857 54.642L89.4757 53.844C89.6531 54.0307 89.8631 54.208 90.1057 54.376C90.3577 54.544 90.6331 54.6933 90.9317 54.824C91.2397 54.9453 91.5664 55.0433 91.9117 55.118C92.2571 55.1833 92.6211 55.216 93.0037 55.216C93.7971 55.216 94.4131 55.076 94.8517 54.796C95.2997 54.5067 95.5237 54.0727 95.5237 53.494C95.5237 53.186 95.4584 52.9293 95.3277 52.724C95.2064 52.5093 95.0197 52.3273 94.7677 52.178C94.5157 52.0193 94.2031 51.884 93.8297 51.772C93.4564 51.66 93.0224 51.548 92.5277 51.436C92.0051 51.3147 91.5477 51.1887 91.1557 51.058C90.7637 50.9273 90.4324 50.764 90.1617 50.568C89.8911 50.372 89.6857 50.1387 89.5457 49.868C89.4151 49.588 89.3497 49.2473 89.3497 48.846C89.3497 48.3887 89.4337 47.9827 89.6017 47.628C89.7791 47.264 90.0264 46.9653 90.3437 46.732C90.6611 46.4893 91.0344 46.3073 91.4637 46.186C91.8931 46.0553 92.3691 45.99 92.8917 45.99C93.5544 45.99 94.1424 46.0927 94.6557 46.298C95.1784 46.494 95.6497 46.774 96.0697 47.138L95.5937 47.922ZM101.79 55.65C101.734 55.678 101.65 55.7153 101.538 55.762C101.435 55.8087 101.314 55.8553 101.174 55.902C101.034 55.9487 100.875 55.9907 100.698 56.028C100.52 56.0653 100.334 56.084 100.138 56.084C99.9323 56.084 99.7363 56.056 99.5496 56C99.3629 55.944 99.1996 55.86 99.0596 55.748C98.9196 55.6267 98.8076 55.4773 98.7236 55.3C98.6396 55.1227 98.5976 54.9173 98.5976 54.684V49.462H97.5896V48.706H98.5976V46.242H99.5496V48.706H101.23V49.462H99.5496V54.418C99.5683 54.6887 99.6616 54.8893 99.8296 55.02C100.007 55.1413 100.208 55.202 100.432 55.202C100.702 55.202 100.94 55.16 101.146 55.076C101.351 54.9827 101.482 54.9173 101.538 54.88L101.79 55.65ZM106.189 56.14C105.657 56.14 105.172 56.042 104.733 55.846C104.295 55.6407 103.912 55.3653 103.585 55.02C103.268 54.6747 103.021 54.2733 102.843 53.816C102.666 53.3587 102.577 52.878 102.577 52.374C102.577 51.8607 102.666 51.3753 102.843 50.918C103.03 50.4607 103.282 50.0593 103.599 49.714C103.926 49.3687 104.309 49.0933 104.747 48.888C105.186 48.6827 105.667 48.58 106.189 48.58C106.712 48.58 107.193 48.6827 107.631 48.888C108.079 49.0933 108.462 49.3687 108.779 49.714C109.106 50.0593 109.358 50.4607 109.535 50.918C109.722 51.3753 109.815 51.8607 109.815 52.374C109.815 52.878 109.727 53.3587 109.549 53.816C109.372 54.2733 109.12 54.6747 108.793 55.02C108.476 55.3653 108.093 55.6407 107.645 55.846C107.207 56.042 106.721 56.14 106.189 56.14ZM103.543 52.388C103.543 52.7987 103.613 53.1813 103.753 53.536C103.893 53.8813 104.08 54.1893 104.313 54.46C104.556 54.7213 104.836 54.9267 105.153 55.076C105.48 55.2253 105.825 55.3 106.189 55.3C106.553 55.3 106.894 55.2253 107.211 55.076C107.538 54.9173 107.823 54.7073 108.065 54.446C108.308 54.1753 108.499 53.8627 108.639 53.508C108.779 53.1533 108.849 52.7707 108.849 52.36C108.849 51.9587 108.779 51.5807 108.639 51.226C108.499 50.862 108.308 50.5493 108.065 50.288C107.823 50.0173 107.538 49.8073 107.211 49.658C106.894 49.4993 106.553 49.42 106.189 49.42C105.825 49.42 105.485 49.4993 105.167 49.658C104.85 49.8073 104.57 50.0173 104.327 50.288C104.085 50.5587 103.893 50.876 103.753 51.24C103.613 51.5947 103.543 51.9773 103.543 52.388ZM115.327 49.546C114.683 49.5647 114.123 49.742 113.647 50.078C113.171 50.414 112.835 50.876 112.639 51.464V56H111.687V48.706H112.583V50.456C112.854 49.896 113.218 49.4573 113.675 49.14C114.133 48.8227 114.623 48.664 115.145 48.664C115.22 48.664 115.281 48.6687 115.327 48.678V49.546ZM119.657 56.14C119.125 56.14 118.635 56.042 118.187 55.846C117.748 55.6407 117.365 55.3653 117.039 55.02C116.712 54.6653 116.455 54.2593 116.269 53.802C116.091 53.3447 116.003 52.8547 116.003 52.332C116.003 51.8187 116.091 51.338 116.269 50.89C116.455 50.4327 116.707 50.036 117.025 49.7C117.351 49.3547 117.739 49.084 118.187 48.888C118.635 48.6827 119.12 48.58 119.643 48.58C120.175 48.58 120.66 48.6827 121.099 48.888C121.547 49.084 121.929 49.3547 122.247 49.7C122.564 50.0453 122.811 50.442 122.989 50.89C123.166 51.338 123.255 51.814 123.255 52.318C123.255 52.3927 123.255 52.4673 123.255 52.542C123.255 52.6167 123.25 52.668 123.241 52.696H116.997C117.025 53.088 117.113 53.452 117.263 53.788C117.421 54.1147 117.622 54.3993 117.865 54.642C118.107 54.8847 118.383 55.076 118.691 55.216C119.008 55.3467 119.344 55.412 119.699 55.412C119.932 55.412 120.165 55.3793 120.399 55.314C120.632 55.2487 120.847 55.16 121.043 55.048C121.239 54.936 121.416 54.8007 121.575 54.642C121.733 54.474 121.855 54.292 121.939 54.096L122.765 54.32C122.653 54.5907 122.494 54.838 122.289 55.062C122.083 55.2767 121.845 55.468 121.575 55.636C121.304 55.7947 121.005 55.916 120.679 56C120.352 56.0933 120.011 56.14 119.657 56.14ZM122.345 51.968C122.317 51.576 122.223 51.2213 122.065 50.904C121.915 50.5773 121.719 50.2973 121.477 50.064C121.243 49.8307 120.968 49.6487 120.651 49.518C120.343 49.3873 120.011 49.322 119.657 49.322C119.302 49.322 118.966 49.3873 118.649 49.518C118.331 49.6487 118.051 49.8307 117.809 50.064C117.575 50.2973 117.384 50.5773 117.235 50.904C117.095 51.2307 117.011 51.5853 116.983 51.968H122.345Z" fill="#808080"/>
<path d="M17.821 8.81818V25.1562C17.821 27.8793 15.8906 29.8352 13.0653 29.8352C10.2273 29.8352 8.30966 27.8793 8.30966 25.1562V8.81818H1.98153V25.706C1.98153 31.5611 6.40483 35.3324 13.0653 35.3324C19.6747 35.3324 24.1364 31.5611 24.1364 25.706V8.81818H17.821ZM33.634 8.81818H27.3826V35H33.634V8.81818ZM47.9769 15.3636H44.4357V10.6591H38.1843V15.3636H35.5891V19.9659H38.1843V29.5156C38.1459 33.4915 40.7283 35.4858 45.1388 35.2812C46.6474 35.2045 47.734 34.8977 48.3349 34.7188L47.3888 30.206C47.1204 30.2699 46.494 30.3977 46.0209 30.3977C45.011 30.3977 44.4357 29.9886 44.4357 28.8253V19.9659H47.9769V15.3636ZM50.4465 35H56.698V24.3381C56.698 21.9986 58.3599 20.4261 60.5971 20.4261C61.3386 20.4261 62.4508 20.554 63.0516 20.7585V15.3253C62.5275 15.1847 61.8755 15.0952 61.3002 15.0952C59.1525 15.0952 57.4394 16.348 56.7235 18.9432H56.519V15.3636H50.4465V35ZM69.6761 35.3324C72.4119 35.3324 74.3039 34.2713 75.3778 32.2642H75.5312V35H81.4119V21.6534C81.4119 17.4986 77.7173 15.108 72.7187 15.108C67.4389 15.108 64.4474 17.767 63.9488 21.3466L69.7145 21.5511C69.9829 20.2983 71.0184 19.5312 72.6676 19.5312C74.2017 19.5312 75.1733 20.2727 75.1733 21.5895V21.6534C75.1733 22.8551 73.8693 23.1108 70.5199 23.4048C66.544 23.7372 63.2201 25.2074 63.2201 29.554C63.2201 33.4403 65.9176 35.3324 69.6761 35.3324ZM71.6065 31.2415C70.1619 31.2415 69.1392 30.5511 69.1392 29.2472C69.1392 27.9815 70.1363 27.2145 71.9133 26.946C73.0767 26.7798 74.5085 26.5241 75.2116 26.1534V28.0199C75.2116 29.9375 73.6008 31.2415 71.6065 31.2415ZM101.658 21.3594C101.325 17.473 98.1422 15.108 92.824 15.108C87.5058 15.108 84.118 17.4219 84.1436 21.3594C84.118 24.3764 86.0484 26.3196 89.9732 27.0483L93.3993 27.7003C95.0229 28.0199 95.7643 28.5312 95.7899 29.4006C95.7643 30.3849 94.6649 31.0369 93.0669 31.0369C91.2899 31.0369 90.0882 30.2699 89.8197 28.8381L83.645 28.9915C84.0925 32.8778 87.4291 35.3707 93.0413 35.3707C98.2956 35.3707 102.118 32.75 102.144 28.7102C102.118 25.8466 100.226 24.1463 96.3141 23.392L92.53 22.6761C90.868 22.3438 90.3311 21.7557 90.3439 21.0014C90.3311 20.0043 91.4945 19.3906 92.9391 19.3906C94.5882 19.3906 95.7388 20.2727 95.9178 21.5128L101.658 21.3594ZM108.017 35.3707C109.768 35.3707 111.315 33.8878 111.341 32.0469C111.315 30.2315 109.768 28.7614 108.017 28.7614C106.176 28.7614 104.668 30.2315 104.693 32.0469C104.668 33.8878 106.176 35.3707 108.017 35.3707Z" fill="#1A1A1A"/>
</svg>
